<svg xmlns="http://www.w3.org/2000/svg" viewBox="0 0 16 16"><path fill="#fff" d="M16 4v8a4 4 0 0 1-4 4H5.6l4.6-16H12a4 4 0 0 1 4 4Z"/><path fill="#678" d="M11.17 6.72c-.1 0-.18.13-.22.28a2.34 2.34 0 0 0 0 .45v.31H9.72a12.05 12.05 0 0 0-1.28 0 .37.37 0 0 0-.16.09c0 .06-.06.08-.06.2s0 .14.08.2.16.13 2.24.13h1.91a4.38 4.38 0 0 1-.15.68 4.85 4.85 0 0 1-.59 1.3 2.45 2.45 0 0 1-.41.5 3.07 3.07 0 0 1-.44-.47 4.47 4.47 0 0 1-.64-1.22c-.07-.18-.15-.36-.17-.4a.35.35 0 0 0-.48-.12c-.17.09-.17.29 0 .72a5.08 5.08 0 0 0 1 1.72c.16.17.2.22.18.24a4.18 4.18 0 0 1-.6.39 7.35 7.35 0 0 1-1.48.54c-.48.13-.6.22-.57.45s.21.35.67.26a6.62 6.62 0 0 0 2.33-1.13.69.69 0 0 1 .16-.1.87.87 0 0 1 .19.11 6.72 6.72 0 0 0 1.9.93c.62.21.76.23.91.17a.39.39 0 0 0 .13-.48c0-.11-.16-.17-.48-.26a9.06 9.06 0 0 1-1.61-.59 5.9 5.9 0 0 1-.55-.36l.17-.21a5.55 5.55 0 0 0 1-1.9c.06-.17.13-.41.16-.53a1 1 0 0 1 .07-.24h.41c.58 0 .74-.05.8-.25a.36.36 0 0 0-.07-.29c-.11-.1-.16-.1-1.46-.1h-1.22v-.35c0-.41 0-.54-.14-.62a.48.48 0 0 0-.3-.05Z"/><path fill="#025" fill-opacity=".16" d="M12.4 0 7.8 16H5.6l4.6-16h2.2Z"/><path fill="#48f" d="M11.3 0 6.7 16H4a4 4 0 0 1-4-4V4a4 4 0 0 1 4-4Z"/><path fill="#fff" d="M7.1 3H2.5a.22.22 0 0 0-.2.2V4a.22.22 0 0 0 .2.2h1.6v4.6a.22.22 0 0 0 .2.2h1a.22.22 0 0 0 .2-.2V4.2h1.6a.22.22 0 0 0 .2-.2v-.8a.22.22 0 0 0-.2-.2Z"/></svg>