<svg width="24" height="24" viewBox="0 0 24 24" fill="none" xmlns="http://www.w3.org/2000/svg">
<path fill-rule="evenodd" clip-rule="evenodd" d="M11.4332 4.09871C11.7797 4.26523 12 4.6156 12 5.00001V19C12 19.3844 11.7797 19.7348 11.4332 19.9013C11.0867 20.0678 10.6755 20.021 10.3753 19.7809L5.64922 16H2C1.44772 16 1 15.5523 1 15V9.00001C1 8.44772 1.44772 8.00001 2 8.00001H5.64922L10.3753 4.21914C10.6755 3.979 11.0867 3.93219 11.4332 4.09871ZM10 7.08063L6.62469 9.78088C6.44738 9.92273 6.22707 10 6 10H3V14H6C6.22707 14 6.44738 14.0773 6.62469 14.2191L10 16.9194V7.08063Z" fill="currentColor"/>
<path fill-rule="evenodd" clip-rule="evenodd" d="M14.2929 9.29289C14.6834 8.90237 15.3166 8.90237 15.7071 9.29289L17 10.5858L18.2929 9.29289C18.6834 8.90237 19.3166 8.90237 19.7071 9.29289C20.0976 9.68342 20.0976 10.3166 19.7071 10.7071L18.4142 12L19.7071 13.2929C20.0976 13.6834 20.0976 14.3166 19.7071 14.7071C19.3166 15.0976 18.6834 15.0976 18.2929 14.7071L17 13.4142L15.7071 14.7071C15.3166 15.0976 14.6834 15.0976 14.2929 14.7071C13.9024 14.3166 13.9024 13.6834 14.2929 13.2929L15.5858 12L14.2929 10.7071C13.9024 10.3166 13.9024 9.68342 14.2929 9.29289Z" fill="currentColor"/>
</svg>

