<svg width="24" height="24" viewBox="0 0 24 24" fill="none" xmlns="http://www.w3.org/2000/svg"><path fill-rule="evenodd" clip-rule="evenodd" d="M9.33333 2C8.35149 2 7.55556 2.81403 7.55556 3.81818H6.66667C5.95942 3.81818 5.28115 4.10552 4.78105 4.61698C4.28095 5.12844 4 5.82214 4 6.54545V19.2727C4 19.996 4.28095 20.6897 4.78105 21.2012C5.28115 21.7127 5.95942 22 6.66667 22H17.3333C18.0406 22 18.7189 21.7127 19.219 21.2012C19.719 20.6897 20 19.996 20 19.2727V6.54545C20 5.82214 19.719 5.12844 19.219 4.61698C18.7189 4.10552 18.0406 3.81818 17.3333 3.81818H16.4444C16.4444 2.81403 15.6485 2 14.6667 2H9.33333ZM14.6667 4.72727L14.6667 3.81818H9.33333V5.63636H14.6667L14.6667 4.72727ZM7.55556 5.63636C7.55556 6.64052 8.35149 7.45455 9.33333 7.45455H14.6667C15.6485 7.45455 16.4444 6.64052 16.4444 5.63636L17.3333 5.63636C17.5691 5.63636 17.7952 5.73214 17.9619 5.90263C18.1286 6.07312 18.2222 6.30435 18.2222 6.54545V19.2727C18.2222 19.5138 18.1286 19.7451 17.9619 19.9156C17.7952 20.086 17.5691 20.1818 17.3333 20.1818H6.66667C6.43092 20.1818 6.20483 20.086 6.03813 19.9156C5.87143 19.7451 5.77778 19.5138 5.77778 19.2727V6.54545C5.77778 6.30435 5.87143 6.07312 6.03813 5.90263C6.20483 5.73214 6.43092 5.63636 6.66667 5.63636L7.55556 5.63636Z" fill="currentColor"/></svg>
